<?xml version="1.0" encoding="UTF-8" standalone="no"?>
<!-- Created with Inkscape (http://www.inkscape.org/) -->

<svg
   xmlns:dc="http://purl.org/dc/elements/1.1/"
   xmlns:cc="http://creativecommons.org/ns#"
   xmlns:rdf="http://www.w3.org/1999/02/22-rdf-syntax-ns#"
   xmlns:svg="http://www.w3.org/2000/svg"
   xmlns="http://www.w3.org/2000/svg"
   xmlns:sodipodi="http://sodipodi.sourceforge.net/DTD/sodipodi-0.dtd"
   xmlns:inkscape="http://www.inkscape.org/namespaces/inkscape"
   width="1280"
   height="800"
   id="svg2"
   version="1.1"
   inkscape:version="0.48.4 r9939"
   sodipodi:docname="01-points.svg">
  <defs
     id="defs4" />
  <sodipodi:namedview
     id="base"
     pagecolor="#ffffff"
     bordercolor="#666666"
     borderopacity="1.0"
     inkscape:pageopacity="0.0"
     inkscape:pageshadow="2"
     inkscape:zoom="0.49497475"
     inkscape:cx="821.49145"
     inkscape:cy="486.7635"
     inkscape:document-units="px"
     inkscape:current-layer="layer1"
     showgrid="false"
     inkscape:window-width="1440"
     inkscape:window-height="852"
     inkscape:window-x="0"
     inkscape:window-y="0"
     inkscape:window-maximized="1" />
  <metadata
     id="metadata7">
    <rdf:RDF>
      <cc:Work
         rdf:about="">
        <dc:format>image/svg+xml</dc:format>
        <dc:type
           rdf:resource="http://purl.org/dc/dcmitype/StillImage" />
        <dc:title></dc:title>
      </cc:Work>
    </rdf:RDF>
  </metadata>
  <g
     inkscape:label="Layer 1"
     inkscape:groupmode="layer"
     id="layer1"
     transform="translate(0,-252.36218)">
    <path
       sodipodi:type="arc"
       style="fill:#434344;fill-opacity:1;stroke:#000000;stroke-width:5;stroke-miterlimit:4;stroke-opacity:1;stroke-dasharray:none;stroke-dashoffset:0"
       id="path2987"
       sodipodi:cx="160.10918"
       sodipodi:cy="205.34927"
       sodipodi:rx="19.697975"
       sodipodi:ry="19.697975"
       d="m 179.80715,205.34927 a 19.697975,19.697975 0 1 1 -39.39595,0 19.697975,19.697975 0 1 1 39.39595,0 z"
       transform="translate(129.89848,163.81293)" />
    <path
       d="m 179.80715,205.34927 a 19.697975,19.697975 0 1 1 -39.39595,0 19.697975,19.697975 0 1 1 39.39595,0 z"
       sodipodi:ry="19.697975"
       sodipodi:rx="19.697975"
       sodipodi:cy="205.34927"
       sodipodi:cx="160.10918"
       id="path3757"
       style="fill:#434344;fill-opacity:1;stroke:#000000;stroke-width:5;stroke-miterlimit:4;stroke-opacity:1;stroke-dasharray:none;stroke-dashoffset:0"
       sodipodi:type="arc"
       transform="translate(637.04133,240.95579)" />
    <path
       transform="translate(27.041332,503.81293)"
       d="m 179.80715,205.34927 a 19.697975,19.697975 0 1 1 -39.39595,0 19.697975,19.697975 0 1 1 39.39595,0 z"
       sodipodi:ry="19.697975"
       sodipodi:rx="19.697975"
       sodipodi:cy="205.34927"
       sodipodi:cx="160.10918"
       id="path3759"
       style="fill:#434344;fill-opacity:1;stroke:#000000;stroke-width:5;stroke-miterlimit:4;stroke-opacity:1;stroke-dasharray:none;stroke-dashoffset:0"
       sodipodi:type="arc" />
    <path
       sodipodi:type="arc"
       style="fill:#434344;fill-opacity:1;stroke:#000000;stroke-width:5;stroke-miterlimit:4;stroke-opacity:1;stroke-dasharray:none;stroke-dashoffset:0"
       id="path3761"
       sodipodi:cx="160.10918"
       sodipodi:cy="205.34927"
       sodipodi:rx="19.697975"
       sodipodi:ry="19.697975"
       d="m 179.80715,205.34927 a 19.697975,19.697975 0 1 1 -39.39595,0 19.697975,19.697975 0 1 1 39.39595,0 z"
       transform="translate(847.04133,682.38436)" />
    <path
       transform="translate(284.18419,688.09864)"
       d="m 179.80715,205.34927 a 19.697975,19.697975 0 1 1 -39.39595,0 19.697975,19.697975 0 1 1 39.39595,0 z"
       sodipodi:ry="19.697975"
       sodipodi:rx="19.697975"
       sodipodi:cy="205.34927"
       sodipodi:cx="160.10918"
       id="path3763"
       style="fill:#434344;fill-opacity:1;stroke:#000000;stroke-width:5;stroke-miterlimit:4;stroke-opacity:1;stroke-dasharray:none;stroke-dashoffset:0"
       sodipodi:type="arc" />
    <path
       sodipodi:type="arc"
       style="fill:#434344;fill-opacity:1;stroke:#000000;stroke-width:5;stroke-miterlimit:4;stroke-opacity:1;stroke-dasharray:none;stroke-dashoffset:0"
       id="path3765"
       sodipodi:cx="160.10918"
       sodipodi:cy="205.34927"
       sodipodi:rx="19.697975"
       sodipodi:ry="19.697975"
       d="m 179.80715,205.34927 a 19.697975,19.697975 0 1 1 -39.39595,0 19.697975,19.697975 0 1 1 39.39595,0 z"
       transform="translate(917.04133,449.52721)" />
    <path
       transform="translate(832.75562,299.52721)"
       d="m 179.80715,205.34927 a 19.697975,19.697975 0 1 1 -39.39595,0 19.697975,19.697975 0 1 1 39.39595,0 z"
       sodipodi:ry="19.697975"
       sodipodi:rx="19.697975"
       sodipodi:cy="205.34927"
       sodipodi:cx="160.10918"
       id="path3767"
       style="fill:#434344;fill-opacity:1;stroke:#000000;stroke-width:5;stroke-miterlimit:4;stroke-opacity:1;stroke-dasharray:none;stroke-dashoffset:0"
       sodipodi:type="arc" />
    <path
       sodipodi:type="arc"
       style="fill:#434344;fill-opacity:1;stroke:#000000;stroke-width:5;stroke-miterlimit:4;stroke-opacity:1;stroke-dasharray:none;stroke-dashoffset:0"
       id="path3769"
       sodipodi:cx="160.10918"
       sodipodi:cy="205.34927"
       sodipodi:rx="19.697975"
       sodipodi:ry="19.697975"
       d="m 179.80715,205.34927 a 19.697975,19.697975 0 1 1 -39.39595,0 19.697975,19.697975 0 1 1 39.39595,0 z"
       transform="translate(375.61276,458.09864)" />
    <path
       transform="translate(429.89847,172.38435)"
       d="m 179.80715,205.34927 a 19.697975,19.697975 0 1 1 -39.39595,0 19.697975,19.697975 0 1 1 39.39595,0 z"
       sodipodi:ry="19.697975"
       sodipodi:rx="19.697975"
       sodipodi:cy="205.34927"
       sodipodi:cx="160.10918"
       id="path3771"
       style="fill:#434344;fill-opacity:1;stroke:#000000;stroke-width:5;stroke-miterlimit:4;stroke-opacity:1;stroke-dasharray:none;stroke-dashoffset:0"
       sodipodi:type="arc" />
    <path
       transform="translate(629.89847,542.38436)"
       sodipodi:type="arc"
       style="fill:#434344;fill-opacity:1;stroke:#000000;stroke-width:5;stroke-miterlimit:4;stroke-opacity:1;stroke-dasharray:none;stroke-dashoffset:0"
       id="path3773"
       sodipodi:cx="160.10918"
       sodipodi:cy="205.34927"
       sodipodi:rx="19.697975"
       sodipodi:ry="19.697975"
       d="m 179.80715,205.34927 a 19.697975,19.697975 0 1 1 -39.39595,0 19.697975,19.697975 0 1 1 39.39595,0 z" />
  </g>
</svg>
