<?xml version="1.0" encoding="UTF-8" standalone="no"?>
<!-- Created with Inkscape (http://www.inkscape.org/) -->

<svg
   xmlns:dc="http://purl.org/dc/elements/1.1/"
   xmlns:cc="http://creativecommons.org/ns#"
   xmlns:rdf="http://www.w3.org/1999/02/22-rdf-syntax-ns#"
   xmlns:svg="http://www.w3.org/2000/svg"
   xmlns="http://www.w3.org/2000/svg"
   xmlns:sodipodi="http://sodipodi.sourceforge.net/DTD/sodipodi-0.dtd"
   xmlns:inkscape="http://www.inkscape.org/namespaces/inkscape"
   width="1280"
   height="800"
   id="svg2"
   version="1.1"
   inkscape:version="0.48.4 r9939"
   sodipodi:docname="merge-02.svg">
  <defs
     id="defs4" />
  <sodipodi:namedview
     id="base"
     pagecolor="#ffffff"
     bordercolor="#666666"
     borderopacity="1.0"
     inkscape:pageopacity="0.0"
     inkscape:pageshadow="2"
     inkscape:zoom="0.7"
     inkscape:cx="617.40444"
     inkscape:cy="384.84075"
     inkscape:document-units="px"
     inkscape:current-layer="layer1"
     showgrid="false"
     inkscape:window-width="1440"
     inkscape:window-height="852"
     inkscape:window-x="0"
     inkscape:window-y="0"
     inkscape:window-maximized="1" />
  <metadata
     id="metadata7">
    <rdf:RDF>
      <cc:Work
         rdf:about="">
        <dc:format>image/svg+xml</dc:format>
        <dc:type
           rdf:resource="http://purl.org/dc/dcmitype/StillImage" />
        <dc:title></dc:title>
      </cc:Work>
    </rdf:RDF>
  </metadata>
  <g
     inkscape:label="Layer 1"
     inkscape:groupmode="layer"
     id="layer1"
     transform="translate(0,-252.36218)">
    <path
       d="m 179.80715,205.34927 c 0,10.87889 -8.81908,19.69798 -19.69797,19.69798 -10.87889,0 -19.69798,-8.81909 -19.69798,-19.69798 0,-10.87889 8.81909,-19.69797 19.69798,-19.69797 10.87889,0 19.69797,8.81908 19.69797,19.69797 z"
       sodipodi:ry="19.697975"
       sodipodi:rx="19.697975"
       sodipodi:cy="205.34927"
       sodipodi:cx="160.10918"
       id="path3757"
       style="fill:#434344;fill-opacity:1;stroke:#000000;stroke-width:5;stroke-miterlimit:4;stroke-opacity:1;stroke-dasharray:none;stroke-dashoffset:0"
       sodipodi:type="arc"
       transform="translate(637.04133,240.95579)" />
    <path
       sodipodi:type="arc"
       style="fill:#434344;fill-opacity:1;stroke:#000000;stroke-width:5;stroke-miterlimit:4;stroke-opacity:1;stroke-dasharray:none;stroke-dashoffset:0"
       id="path3761"
       sodipodi:cx="160.10918"
       sodipodi:cy="205.34927"
       sodipodi:rx="19.697975"
       sodipodi:ry="19.697975"
       d="m 179.80715,205.34927 a 19.697975,19.697975 0 1 1 -39.39595,0 19.697975,19.697975 0 1 1 39.39595,0 z"
       transform="translate(693.49814,662.18131)" />
    <path
       transform="translate(403.38219,704.26108)"
       d="m 179.80715,205.34927 a 19.697975,19.697975 0 1 1 -39.39595,0 19.697975,19.697975 0 1 1 39.39595,0 z"
       sodipodi:ry="19.697975"
       sodipodi:rx="19.697975"
       sodipodi:cy="205.34927"
       sodipodi:cx="160.10918"
       id="path3763"
       style="fill:#434344;fill-opacity:1;stroke:#000000;stroke-width:5;stroke-miterlimit:4;stroke-opacity:1;stroke-dasharray:none;stroke-dashoffset:0"
       sodipodi:type="arc" />
    <path
       sodipodi:type="arc"
       style="fill:#434344;fill-opacity:1;stroke:#000000;stroke-width:5;stroke-miterlimit:4;stroke-opacity:1;stroke-dasharray:none;stroke-dashoffset:0"
       id="path3769"
       sodipodi:cx="160.10918"
       sodipodi:cy="205.34927"
       sodipodi:rx="19.697975"
       sodipodi:ry="19.697975"
       d="m 179.80715,205.34927 a 19.697975,19.697975 0 1 1 -39.39595,0 19.697975,19.697975 0 1 1 39.39595,0 z"
       transform="translate(329.14574,429.81437)" />
    <path
       transform="translate(429.89847,172.38435)"
       d="m 179.80715,205.34927 c 0,10.87889 -8.81908,19.69798 -19.69797,19.69798 -10.87889,0 -19.69798,-8.81909 -19.69798,-19.69798 0,-10.87889 8.81909,-19.69797 19.69798,-19.69797 10.87889,0 19.69797,8.81908 19.69797,19.69797 z"
       sodipodi:ry="19.697975"
       sodipodi:rx="19.697975"
       sodipodi:cy="205.34927"
       sodipodi:cx="160.10918"
       id="path3771"
       style="fill:#434344;fill-opacity:1;stroke:#000000;stroke-width:5;stroke-miterlimit:4;stroke-opacity:1;stroke-dasharray:none;stroke-dashoffset:0"
       sodipodi:type="arc" />
    <path
       transform="translate(690.50762,441.36911)"
       sodipodi:type="arc"
       style="fill:#434344;fill-opacity:1;stroke:#000000;stroke-width:5;stroke-miterlimit:4;stroke-opacity:1;stroke-dasharray:none;stroke-dashoffset:0"
       id="path3773"
       sodipodi:cx="160.10918"
       sodipodi:cy="205.34927"
       sodipodi:rx="19.697975"
       sodipodi:ry="19.697975"
       d="m 179.80715,205.34927 a 19.697975,19.697975 0 1 1 -39.39595,0 19.697975,19.697975 0 1 1 39.39595,0 z" />
    <path
       style="fill:none;stroke:#0000ff;stroke-width:5;stroke-linecap:butt;stroke-linejoin:miter;stroke-opacity:1;stroke-miterlimit:4;stroke-dasharray:60,60;stroke-dashoffset:0"
       d="M 672.76159,-0.04081016 672.76159,800"
       id="path3071"
       inkscape:connector-curvature="0"
       transform="translate(0,252.36218)" />
    <path
       style="fill:none;stroke:#ffff00;stroke-width:5;stroke-linecap:butt;stroke-linejoin:miter;stroke-miterlimit:4;stroke-opacity:1;stroke-dasharray:none"
       d="M 508.70356,369.60534 771.75654,187.84756"
       id="path3892"
       inkscape:connector-curvature="0"
       transform="translate(0,252.36218)"
       sodipodi:nodetypes="cc" />
    <path
       transform="translate(0,252.36218)"
       inkscape:connector-curvature="0"
       id="path3894"
       d="m 514.41784,385.31963 317.3387,-6.0435"
       style="fill:none;stroke:#ffff00;stroke-width:5;stroke-linecap:butt;stroke-linejoin:miter;stroke-miterlimit:4;stroke-opacity:1;stroke-dasharray:none"
       sodipodi:nodetypes="cc" />
    <path
       sodipodi:nodetypes="cc"
       style="fill:none;stroke:#ffff00;stroke-width:5;stroke-linecap:butt;stroke-linejoin:miter;stroke-miterlimit:4;stroke-opacity:1;stroke-dasharray:none"
       d="M 505.84642,398.17677 837.47083,596.41899"
       id="path3896"
       inkscape:connector-curvature="0"
       transform="translate(0,252.36218)" />
  </g>
</svg>
